<svg width="100" height="100" viewBox="0 0 100 100" xmlns="http://www.w3.org/2000/svg">
  <defs>
    <linearGradient id="logoGrad" x1="0%" y1="0%" x2="100%" y2="100%">
      <stop offset="0%" style="stop-color:#34d399;stop-opacity:1" />
      <stop offset="100%" style="stop-color:#60a5fa;stop-opacity:1" />
    </linearGradient>
  </defs>
  <path d="M20 80 L20 35 C20 25, 25 20, 35 20 L70 20 C80 20, 80 25, 80 35 L80 65 C80 75, 75 80, 65 80 L30 80 Z" fill="url(#logoGrad)" />
  <path d="M30 80 L65 80 C70 80, 70 75, 70 65 L70 45 C70 40, 65 35, 60 35 L30 35 C25 35, 20 40, 20 45 L20 65 C20 75, 25 80, 30 80 Z" fill="#0d1117" opacity="0.6"/>
  <path d="M50 50 L80 20" stroke="white" stroke-width="4" stroke-linecap="round" opacity="0.3"/>
</svg>